<?xml version="1.0" encoding="utf-8"?>
<!-- Generator: Adobe Illustrator 19.2.0, SVG Export Plug-In . SVG Version: 6.00 Build 0)  -->
<svg version="1.1" id="Calque_1" xmlns="http://www.w3.org/2000/svg" xmlns:xlink="http://www.w3.org/1999/xlink" x="0px" y="0px"
	 viewBox="0 0 3000 2000" style="enable-background:new 0 0 3000 2000;" xml:space="preserve">
<style type="text/css">
	.st0{fill:#0000F4;stroke:#000000;stroke-width:2;stroke-miterlimit:10;}
</style>
<rect x="3884.6" y="-4129.7" class="st0" width="895.6" height="116.7"/>
<rect x="2439.3" y="-2321.5" width="2590.3" height="111"/>
<rect x="-124.5" y="-2321.5" width="2590.3" height="111"/>
<rect x="-124.5" y="-2608.3" width="2590.3" height="111"/>
<rect x="-124.5" y="-2895.2" width="2590.3" height="111"/>
<rect x="-124.5" y="-3182" width="2590.3" height="111"/>
<rect x="-124.5" y="-3468.9" width="2590.3" height="111"/>
<rect x="-124.5" y="-3755.7" width="2590.3" height="111"/>
<rect x="-124.5" y="-4042.6" width="2590.3" height="111"/>
<rect x="-124.5" y="-4329.4" width="2590.3" height="111"/>
<rect x="-124.5" y="-4616.3" width="2590.3" height="111"/>
<rect x="-124.5" y="-4903.1" width="2590.3" height="111"/>
<rect x="-124.5" y="-5190" width="2590.3" height="111"/>
<rect x="10211.3" y="-6282.2" width="111" height="4061.7"/>
<rect x="5268.3" y="-2311.5" width="1579.3" height="91.1"/>
<rect x="6847.6" y="-2311.5" width="3363.6" height="91.1"/>
<rect x="3791.6" y="-4129.7" width="73.9" height="233.3"/>
<rect x="4394.3" y="-3817.7" width="73.9" height="233.3"/>
<rect x="5091.2" y="-3936.4" width="288.9" height="151.1"/>
<rect id="XMLID_1_" x="5424.6" y="-3936.4" width="288.9" height="151.1"/>
<rect x="5751.2" y="-3936.4" width="288.9" height="151.1"/>
<rect id="cool" x="6084.6" y="-3936.4" width="288.9" height="151.1"/>
<rect x="8800.3" y="-2835" width="288.9" height="151.1"/>
<rect x="9133.7" y="-2835" width="288.9" height="151.1"/>
<rect x="9460.3" y="-2835" width="288.9" height="151.1"/>
<rect id="cool_13_" x="9793.7" y="-2835" width="288.9" height="151.1"/>
<rect x="8248.4" y="-3591.2" width="288.9" height="151.1"/>
<rect x="8581.8" y="-3591.2" width="288.9" height="151.1"/>
<rect x="8908.4" y="-3591.2" width="288.9" height="151.1"/>
<rect id="cool_14_" x="9241.8" y="-3591.2" width="288.9" height="151.1"/>
<rect x="8944.7" y="-5516.8" width="288.9" height="151.1"/>
<rect x="9278.1" y="-5516.8" width="288.9" height="151.1"/>
<rect x="9604.7" y="-5516.8" width="288.9" height="151.1"/>
<rect id="cool_15_" x="9938.1" y="-5516.8" width="288.9" height="151.1"/>
<rect id="cool_18_" x="6711.1" y="-6191.1" width="288.9" height="151.1"/>
<rect id="cool_25_" x="5235.7" y="-1966" width="288.9" height="151.1"/>
<rect id="cool_19_" x="6566.6" y="-6040" width="288.9" height="151.1"/>
<rect id="cool_20_" x="6711.1" y="-5888.9" width="288.9" height="151.1"/>
<rect id="cool_21_" x="6566.6" y="-5813.4" width="288.9" height="151.1"/>
<rect id="cool_22_" x="6574.8" y="-5390.6" width="288.9" height="151.1"/>
<rect id="cool_23_" x="6574.8" y="-5198.7" width="288.9" height="151.1"/>
<rect id="cool_24_" x="6574.8" y="-5006.7" width="288.9" height="151.1"/>
<rect x="7110.6" y="-4623" width="288.9" height="151.1"/>
<rect x="7444" y="-4623" width="288.9" height="151.1"/>
<rect x="7770.6" y="-4623" width="288.9" height="151.1"/>
<rect id="cool_16_" x="8104" y="-4623" width="288.9" height="151.1"/>
<rect x="7490.7" y="-5358.4" width="288.9" height="151.1"/>
<rect x="5982.7" y="-6357.8" width="288.9" height="151.1"/>
<rect x="5634.7" y="-6357.8" width="288.9" height="151.1"/>
<rect x="5286.7" y="-6357.8" width="288.9" height="151.1"/>
<rect x="4938.7" y="-6357.8" width="288.9" height="151.1"/>
<rect x="4590.7" y="-6357.8" width="288.9" height="151.1"/>
<rect x="4598.4" y="-6158.5" width="288.9" height="151.1"/>
<rect x="4250.5" y="-6158.5" width="288.9" height="151.1"/>
<rect x="3902.5" y="-6158.5" width="288.9" height="151.1"/>
<rect x="3554.5" y="-6158.5" width="288.9" height="151.1"/>
<rect x="3206.5" y="-6158.5" width="288.9" height="151.1"/>
<rect x="3478.9" y="-5223" width="151.1" height="288.9"/>
<rect x="3478.9" y="-5571" width="151.1" height="288.9"/>
<rect x="3478.9" y="-5919" width="151.1" height="288.9"/>
<rect x="3478.9" y="-6267" width="151.1" height="288.9"/>
<rect x="3478.9" y="-6615" width="151.1" height="288.9"/>
<rect x="4659.6" y="-6615" width="151.1" height="288.9"/>
<rect x="4659.6" y="-6963" width="151.1" height="288.9"/>
<rect x="4659.6" y="-7311" width="151.1" height="288.9"/>
<rect x="4659.6" y="-7659" width="151.1" height="288.9"/>
<rect x="4659.6" y="-8007" width="151.1" height="288.9"/>
<rect x="7713.8" y="-5774.6" width="144.4" height="75.5"/>
<rect x="7921.8" y="-5282.8" width="288.9" height="151.1"/>
<rect x="8248.4" y="-5282.8" width="288.9" height="151.1"/>
<rect id="cool_17_" x="8581.8" y="-5282.8" width="288.9" height="151.1"/>
<rect id="cool_5_" x="6040.1" y="-3417.3" width="288.9" height="151.1"/>
<rect id="cool_6_" x="6156.8" y="-3306.3" width="288.9" height="151.1"/>
<rect x="3953.4" y="-2984.4" width="144.5" height="151.1"/>
<rect x="4121.4" y="-2984.4" width="144.5" height="151.1"/>
<rect x="4289.4" y="-2984.4" width="144.5" height="151.1"/>
<rect x="4457.4" y="-2984.4" width="144.5" height="151.1"/>
<rect x="4529.6" y="-3292.4" width="144.5" height="151.1"/>
<rect x="4625.4" y="-2984.4" width="144.5" height="151.1"/>
<rect x="4793.4" y="-2984.4" width="144.5" height="151.1"/>
<rect x="4286.8" y="-3636.4" width="288.9" height="151.1"/>
<rect x="3973" y="-3509.7" width="73.9" height="233.3"/>
<rect x="3865.5" y="-3328.4" width="288.9" height="151.1"/>
<rect x="4613.4" y="-3636.4" width="288.9" height="151.1"/>
<rect id="cool_1_" x="4946.8" y="-3636.4" width="288.9" height="151.1"/>
<rect id="cool_2_" x="5123.8" y="-3252.8" width="288.9" height="151.1"/>
<rect id="cool_3_" x="5280.1" y="-2908.8" width="1165.6" height="601"/>
<rect id="cool_4_" x="5637.2" y="-3584.4" width="937.6" height="220.3"/>
<rect id="cool_9_" x="7713.8" y="-2870.5" width="288.9" height="151.1"/>
<rect id="cool_8_" x="7830.5" y="-2759.5" width="288.9" height="151.1"/>
<rect id="cool_7_" x="7310.9" y="-3037.5" width="937.6" height="220.3"/>
<rect id="cool_12_" x="9441.4" y="-4177.2" width="288.9" height="151.1"/>
<rect id="cool_11_" x="9558.2" y="-4066.2" width="288.9" height="151.1"/>
<rect id="cool_10_" x="9038.5" y="-4344.3" width="937.6" height="220.3"/>
<rect x="6855.5" y="-6282.2" width="3363.6" height="91.1"/>
<image style="overflow:visible;enable-background:new    ;" width="200" height="200" xlink:href="../../vectoTilesXML/data/particule.png"  transform="matrix(0.7903 0.6127 -0.6127 0.7903 2829.7893 -3217.6279)">
</image>
<rect x="-2917" y="-2461.5" class="st0" width="116.7" height="895.6"/>
<rect x="-4719.6" y="-3906.8" width="111" height="2590.3"/>
<rect x="-4719.6" y="-6470.6" width="111" height="2590.3"/>
<rect x="-4432.7" y="-6470.6" width="111" height="2590.3"/>
<rect x="-4145.9" y="-6470.6" width="111" height="2590.3"/>
<rect x="-3859" y="-6470.6" width="111" height="2590.3"/>
<rect x="-3572.2" y="-6470.6" width="111" height="2590.3"/>
<rect x="-3285.3" y="-6470.6" width="111" height="2590.3"/>
<rect x="-2998.5" y="-6470.6" width="111" height="2590.3"/>
<rect x="-2711.6" y="-6470.6" width="111" height="2590.3"/>
<rect x="-2424.8" y="-6470.6" width="111" height="2590.3"/>
<rect x="-2137.9" y="-6470.6" width="111" height="2590.3"/>
<rect x="-1851.1" y="-6470.6" width="111" height="2590.3"/>
<rect x="-5324.5" y="8120.5" width="16413.4" height="111"/>
<rect x="-4709.6" y="-1077.8" width="91.1" height="1579.3"/>
<rect x="-4709.6" y="501.5" width="91.1" height="3363.6"/>
<rect x="-3033.6" y="-2554.5" width="233.3" height="73.9"/>
<rect x="-3345.6" y="-1951.8" width="233.3" height="73.9"/>
<rect x="-3144.7" y="-1254.9" width="151.1" height="288.9"/>
<rect id="XMLID_2_" x="-3144.7" y="-921.5" width="151.1" height="288.9"/>
<rect x="-3144.7" y="-594.9" width="151.1" height="288.9"/>
<rect id="cool_51_" x="-3144.7" y="-261.5" width="151.1" height="288.9"/>
<rect x="-4246.1" y="2454.2" width="151.1" height="288.9"/>
<rect x="-4246.1" y="2787.6" width="151.1" height="288.9"/>
<rect x="-4246.1" y="3114.2" width="151.1" height="288.9"/>
<rect id="cool_50_" x="-4246.1" y="3447.6" width="151.1" height="288.9"/>
<rect x="-3489.9" y="1902.3" width="151.1" height="288.9"/>
<rect x="-3489.9" y="2235.7" width="151.1" height="288.9"/>
<rect x="-3489.9" y="2562.3" width="151.1" height="288.9"/>
<rect id="cool_49_" x="-3489.9" y="2895.7" width="151.1" height="288.9"/>
<rect x="-1564.3" y="2598.6" width="151.1" height="288.9"/>
<rect x="-1564.3" y="2932" width="151.1" height="288.9"/>
<rect x="-1564.3" y="3258.6" width="151.1" height="288.9"/>
<rect id="cool_48_" x="-1564.3" y="3592" width="151.1" height="288.9"/>
<rect id="cool_47_" x="-890" y="365" width="151.1" height="288.9"/>
<rect id="cool_46_" x="-5115.1" y="-1110.4" width="151.1" height="288.9"/>
<rect id="cool_45_" x="-1041.1" y="220.5" width="151.1" height="288.9"/>
<rect id="cool_44_" x="-1192.2" y="365" width="151.1" height="288.9"/>
<rect id="cool_43_" x="-1267.8" y="220.5" width="151.1" height="288.9"/>
<rect id="cool_42_" x="-1690.5" y="228.7" width="151.1" height="288.9"/>
<rect id="cool_41_" x="-1882.4" y="228.7" width="151.1" height="288.9"/>
<rect id="cool_40_" x="-2074.4" y="228.7" width="151.1" height="288.9"/>
<rect x="-2458.1" y="764.5" width="151.1" height="288.9"/>
<rect x="-2458.1" y="1097.9" width="151.1" height="288.9"/>
<rect x="-2458.1" y="1424.5" width="151.1" height="288.9"/>
<rect id="cool_39_" x="-2458.1" y="1757.9" width="151.1" height="288.9"/>
<rect x="-1722.7" y="1144.6" width="151.1" height="288.9"/>
<rect x="-723.3" y="-363.4" width="151.1" height="288.9"/>
<rect x="-723.3" y="-711.4" width="151.1" height="288.9"/>
<rect x="-723.3" y="-1059.4" width="151.1" height="288.9"/>
<rect x="-723.3" y="-1407.4" width="151.1" height="288.9"/>
<rect x="-723.3" y="-1755.4" width="151.1" height="288.9"/>
<rect x="-922.6" y="-1747.7" width="151.1" height="288.9"/>
<rect x="-922.6" y="-2095.6" width="151.1" height="288.9"/>
<rect x="-922.6" y="-2443.6" width="151.1" height="288.9"/>
<rect x="-922.6" y="-2791.6" width="151.1" height="288.9"/>
<rect x="-922.6" y="-3139.6" width="151.1" height="288.9"/>
<rect x="-1995.9" y="-2867.2" width="288.9" height="151.1"/>
<rect x="-1647.9" y="-2867.2" width="288.9" height="151.1"/>
<rect x="-1299.9" y="-2867.2" width="288.9" height="151.1"/>
<rect x="-951.9" y="-2867.2" width="288.9" height="151.1"/>
<rect x="-603.9" y="-2867.2" width="288.9" height="151.1"/>
<rect x="-603.9" y="-1686.5" width="288.9" height="151.1"/>
<rect x="-255.9" y="-1686.5" width="288.9" height="151.1"/>
<rect x="92.1" y="-1686.5" width="288.9" height="151.1"/>
<rect x="440.1" y="-1686.5" width="288.9" height="151.1"/>
<rect x="-1230.9" y="1367.7" width="75.5" height="144.4"/>
<rect x="-1798.3" y="1575.7" width="151.1" height="288.9"/>
<rect x="-1798.3" y="1902.3" width="151.1" height="288.9"/>
<rect id="cool_38_" x="-1798.3" y="2235.7" width="151.1" height="288.9"/>
<rect id="cool_37_" x="-3663.8" y="-306" width="151.1" height="288.9"/>
<rect id="cool_36_" x="-3774.8" y="-189.3" width="151.1" height="288.9"/>
<rect x="-4096.7" y="-2392.7" width="151.1" height="144.5"/>
<rect x="-4096.7" y="-2224.7" width="151.1" height="144.5"/>
<rect x="-4096.7" y="-2056.7" width="151.1" height="144.5"/>
<rect x="-4096.7" y="-1888.7" width="151.1" height="144.5"/>
<rect x="-3788.7" y="-1816.5" width="151.1" height="144.5"/>
<rect x="-4096.7" y="-1720.7" width="151.1" height="144.5"/>
<rect x="-4096.7" y="-1552.7" width="151.1" height="144.5"/>
<rect x="-3444.7" y="-2059.3" width="151.1" height="288.9"/>
<rect x="-3653.6" y="-2373.1" width="233.3" height="73.9"/>
<rect x="-3752.7" y="-2480.6" width="151.1" height="288.9"/>
<rect x="-3444.7" y="-1732.7" width="151.1" height="288.9"/>
<rect id="cool_35_" x="-3444.7" y="-1399.3" width="151.1" height="288.9"/>
<rect id="cool_34_" x="-3828.3" y="-1222.3" width="151.1" height="288.9"/>
<rect id="cool_33_" x="-4622.2" y="-1066" width="601" height="1165.6"/>
<rect id="cool_32_" x="-3565.9" y="-708.9" width="220.3" height="937.6"/>
<rect id="cool_31_" x="-4210.6" y="1367.7" width="151.1" height="288.9"/>
<rect id="cool_30_" x="-4321.6" y="1484.4" width="151.1" height="288.9"/>
<rect id="cool_29_" x="-4112.8" y="964.8" width="220.3" height="937.6"/>
<rect id="cool_28_" x="-2903.9" y="3095.3" width="151.1" height="288.9"/>
<rect id="cool_27_" x="-3014.9" y="3212.1" width="151.1" height="288.9"/>
<rect id="cool_26_" x="-2806" y="2692.4" width="220.3" height="937.6"/>
<rect x="1580.7" y="-1077.9" class="st0" width="116.7" height="895.6"/>
<rect x="1464.1" y="-1170.9" width="233.3" height="73.9"/>
<rect x="1152.1" y="-568.2" width="233.3" height="73.9"/>
<rect x="1353" y="128.7" width="151.1" height="288.9"/>
<rect id="XMLID_3_" x="1353" y="462.1" width="151.1" height="288.9"/>
<rect x="1353" y="788.7" width="151.1" height="288.9"/>
<rect id="cool_74_" x="1353" y="1122.1" width="151.1" height="288.9"/>
<rect x="251.6" y="3837.8" width="151.1" height="288.9"/>
<rect x="251.6" y="4171.2" width="151.1" height="288.9"/>
<rect x="251.6" y="4497.8" width="151.1" height="288.9"/>
<rect id="cool_73_" x="251.6" y="4831.2" width="151.1" height="288.9"/>
<rect x="1007.8" y="3285.9" width="151.1" height="288.9"/>
<rect x="1007.8" y="3619.3" width="151.1" height="288.9"/>
<rect x="1007.8" y="3945.9" width="151.1" height="288.9"/>
<rect id="cool_72_" x="1007.8" y="4279.3" width="151.1" height="288.9"/>
<rect x="2933.4" y="3982.2" width="151.1" height="288.9"/>
<rect x="2933.4" y="4315.6" width="151.1" height="288.9"/>
<rect x="2933.4" y="4642.2" width="151.1" height="288.9"/>
<rect id="cool_71_" x="2933.4" y="4975.6" width="151.1" height="288.9"/>
<rect id="cool_70_" x="3305.5" y="1748.6" width="151.1" height="288.9"/>
<rect id="cool_69_" x="3230" y="1604.1" width="151.1" height="288.9"/>
<rect id="cool_68_" x="2807.2" y="1612.3" width="151.1" height="288.9"/>
<rect id="cool_67_" x="2615.3" y="1612.3" width="151.1" height="288.9"/>
<rect id="cool_66_" x="2423.3" y="1612.3" width="151.1" height="288.9"/>
<rect x="2039.6" y="2148.1" width="151.1" height="288.9"/>
<rect x="2039.6" y="2481.5" width="151.1" height="288.9"/>
<rect x="2039.6" y="2808.1" width="151.1" height="288.9"/>
<rect id="cool_65_" x="2039.6" y="3141.5" width="151.1" height="288.9"/>
<rect x="2775" y="2528.2" width="151.1" height="288.9"/>
<rect x="3266.8" y="2751.3" width="75.5" height="144.4"/>
<rect x="2699.4" y="2959.3" width="151.1" height="288.9"/>
<rect x="2699.4" y="3285.9" width="151.1" height="288.9"/>
<rect id="cool_64_" x="2699.4" y="3619.3" width="151.1" height="288.9"/>
<rect id="cool_63_" x="833.9" y="1077.6" width="151.1" height="288.9"/>
<rect id="cool_62_" x="722.9" y="1194.3" width="151.1" height="288.9"/>
<rect x="401" y="-1009.1" width="151.1" height="144.5"/>
<rect x="401" y="-841.1" width="151.1" height="144.5"/>
<rect x="401" y="-673.1" width="151.1" height="144.5"/>
<rect x="401" y="-505.1" width="151.1" height="144.5"/>
<rect x="709" y="-432.9" width="151.1" height="144.5"/>
<rect x="401" y="-337.1" width="151.1" height="144.5"/>
<rect x="401" y="-169.1" width="151.1" height="144.5"/>
<rect x="1053" y="-675.7" width="151.1" height="288.9"/>
<rect x="844.1" y="-989.5" width="233.3" height="73.9"/>
<rect x="745" y="-1097" width="151.1" height="288.9"/>
<rect x="1053" y="-349.1" width="151.1" height="288.9"/>
<rect id="cool_61_" x="1053" y="-15.7" width="151.1" height="288.9"/>
<rect id="cool_60_" x="669.4" y="161.3" width="151.1" height="288.9"/>
<rect id="cool_59_" x="-124.5" y="317.6" width="601" height="1165.6"/>
<rect id="cool_58_" x="931.8" y="674.7" width="220.3" height="937.6"/>
<rect id="cool_57_" x="287.1" y="2751.3" width="151.1" height="288.9"/>
<rect id="cool_56_" x="176.1" y="2868" width="151.1" height="288.9"/>
<rect id="cool_55_" x="384.9" y="2348.4" width="220.3" height="937.6"/>
<rect id="cool_54_" x="1593.8" y="4478.9" width="151.1" height="288.9"/>
<rect id="cool_53_" x="1482.8" y="4595.7" width="151.1" height="288.9"/>
<rect id="cool_52_" x="1691.7" y="4076" width="220.3" height="937.6"/>
<rect x="5549.4" y="-1077.9" class="st0" width="116.7" height="895.6"/>
<rect x="5432.8" y="-1170.9" width="233.3" height="73.9"/>
<rect x="5120.8" y="-568.2" width="233.3" height="73.9"/>
<rect x="5321.7" y="128.7" width="151.1" height="288.9"/>
<rect id="XMLID_4_" x="5321.7" y="462.1" width="151.1" height="288.9"/>
<rect x="5321.7" y="788.7" width="151.1" height="288.9"/>
<rect id="cool_97_" x="5321.7" y="1122.1" width="151.1" height="288.9"/>
<rect x="4220.3" y="3837.8" width="151.1" height="288.9"/>
<rect x="4220.3" y="4171.2" width="151.1" height="288.9"/>
<rect x="4220.3" y="4497.8" width="151.1" height="288.9"/>
<rect id="cool_96_" x="4220.3" y="4831.2" width="151.1" height="288.9"/>
<rect x="4976.5" y="3285.9" width="151.1" height="288.9"/>
<rect x="4976.5" y="3619.3" width="151.1" height="288.9"/>
<rect x="4976.5" y="3945.9" width="151.1" height="288.9"/>
<rect id="cool_95_" x="4976.5" y="4279.3" width="151.1" height="288.9"/>
<rect x="6902.1" y="3982.2" width="151.1" height="288.9"/>
<rect x="6902.1" y="4315.6" width="151.1" height="288.9"/>
<rect x="6902.1" y="4642.2" width="151.1" height="288.9"/>
<rect id="cool_94_" x="6902.1" y="4975.6" width="151.1" height="288.9"/>
<rect id="cool_93_" x="7274.2" y="1748.6" width="151.1" height="288.9"/>
<rect id="cool_92_" x="7198.6" y="1604.1" width="151.1" height="288.9"/>
<rect id="cool_91_" x="6775.9" y="1612.3" width="151.1" height="288.9"/>
<rect id="cool_90_" x="6584" y="1612.3" width="151.1" height="288.9"/>
<rect id="cool_89_" x="6392" y="1612.3" width="151.1" height="288.9"/>
<rect x="6008.3" y="2148.1" width="151.1" height="288.9"/>
<rect x="6008.3" y="2481.5" width="151.1" height="288.9"/>
<rect x="6008.3" y="2808.1" width="151.1" height="288.9"/>
<rect id="cool_88_" x="6008.3" y="3141.5" width="151.1" height="288.9"/>
<rect x="6743.7" y="2528.2" width="151.1" height="288.9"/>
<rect x="7235.5" y="2751.3" width="75.5" height="144.4"/>
<rect x="6668.1" y="2959.3" width="151.1" height="288.9"/>
<rect x="6668.1" y="3285.9" width="151.1" height="288.9"/>
<rect id="cool_87_" x="6668.1" y="3619.3" width="151.1" height="288.9"/>
<rect id="cool_86_" x="4802.6" y="1077.6" width="151.1" height="288.9"/>
<rect id="cool_85_" x="4691.6" y="1194.3" width="151.1" height="288.9"/>
<rect x="4369.7" y="-1009.1" width="151.1" height="144.5"/>
<rect x="4369.7" y="-841.1" width="151.1" height="144.5"/>
<rect x="4369.7" y="-673.1" width="151.1" height="144.5"/>
<rect x="4369.7" y="-505.1" width="151.1" height="144.5"/>
<rect x="4677.7" y="-432.9" width="151.1" height="144.5"/>
<rect x="3229" y="-702.3" width="151.1" height="144.5"/>
<rect x="4369.7" y="-169.1" width="151.1" height="144.5"/>
<rect x="5021.7" y="-675.7" width="151.1" height="288.9"/>
<rect x="4812.8" y="-989.5" width="233.3" height="73.9"/>
<rect x="4713.7" y="-1097" width="151.1" height="288.9"/>
<rect x="5021.7" y="-349.1" width="151.1" height="288.9"/>
<rect id="cool_84_" x="5021.7" y="-15.7" width="151.1" height="288.9"/>
<rect id="cool_83_" x="4638.1" y="161.3" width="151.1" height="288.9"/>
<rect id="cool_82_" x="3844.2" y="317.6" width="601" height="1165.6"/>
<rect id="cool_81_" x="4900.5" y="674.7" width="220.3" height="937.6"/>
<rect id="cool_80_" x="4255.8" y="2751.3" width="151.1" height="288.9"/>
<rect id="cool_79_" x="4144.8" y="2868" width="151.1" height="288.9"/>
<rect id="cool_78_" x="4353.6" y="2348.4" width="220.3" height="937.6"/>
<rect id="cool_77_" x="5562.5" y="4478.9" width="151.1" height="288.9"/>
<rect id="cool_76_" x="5451.5" y="4595.7" width="151.1" height="288.9"/>
<rect id="cool_75_" x="5660.4" y="4076" width="220.3" height="937.6"/>
<rect x="8618.9" y="3982.2" width="151.1" height="288.9"/>
<rect x="8618.9" y="4315.6" width="151.1" height="288.9"/>
<rect x="8618.9" y="4642.2" width="151.1" height="288.9"/>
<rect id="cool_107_" x="8618.9" y="4975.6" width="151.1" height="288.9"/>
<rect id="cool_106_" x="8991" y="1748.6" width="151.1" height="288.9"/>
<rect id="cool_105_" x="8915.5" y="1604.1" width="151.1" height="288.9"/>
<rect id="cool_104_" x="8492.7" y="1612.3" width="151.1" height="288.9"/>
<rect id="cool_103_" x="8300.8" y="1612.3" width="151.1" height="288.9"/>
<rect id="cool_102_" x="8108.8" y="1612.3" width="151.1" height="288.9"/>
<rect x="7725.1" y="2148.1" width="151.1" height="288.9"/>
<rect x="7725.1" y="2481.5" width="151.1" height="288.9"/>
<rect x="7725.1" y="2808.1" width="151.1" height="288.9"/>
<rect id="cool_101_" x="7725.1" y="3141.5" width="151.1" height="288.9"/>
<rect x="8460.5" y="2528.2" width="151.1" height="288.9"/>
<rect x="8952.3" y="2751.3" width="75.5" height="144.4"/>
<rect x="8384.9" y="2959.3" width="151.1" height="288.9"/>
<rect x="8384.9" y="3285.9" width="151.1" height="288.9"/>
<rect id="cool_100_" x="8384.9" y="3619.3" width="151.1" height="288.9"/>
<rect id="cool_99_" x="7279.3" y="4478.9" width="151.1" height="288.9"/>
<rect id="cool_98_" x="7377.2" y="4076" width="220.3" height="937.6"/>
<rect x="251.6" y="6693.8" width="151.1" height="288.9"/>
<rect x="251.6" y="7027.2" width="151.1" height="288.9"/>
<rect x="251.6" y="7353.8" width="151.1" height="288.9"/>
<rect id="cool_137_" x="251.6" y="7687.2" width="151.1" height="288.9"/>
<rect x="1007.8" y="6141.9" width="151.1" height="288.9"/>
<rect x="1007.8" y="6475.3" width="151.1" height="288.9"/>
<rect x="1007.8" y="6801.9" width="151.1" height="288.9"/>
<rect id="cool_136_" x="1007.8" y="7135.3" width="151.1" height="288.9"/>
<rect x="2933.4" y="6838.2" width="151.1" height="288.9"/>
<rect x="2933.4" y="7171.6" width="151.1" height="288.9"/>
<rect x="2933.4" y="7498.2" width="151.1" height="288.9"/>
<rect id="cool_135_" x="3790" y="7027.2" width="151.1" height="288.9"/>
<rect id="cool_134_" x="3305.5" y="4604.5" width="151.1" height="288.9"/>
<rect x="2039.6" y="5004.1" width="151.1" height="288.9"/>
<rect x="2039.6" y="5337.5" width="151.1" height="288.9"/>
<rect x="2039.6" y="5664.1" width="151.1" height="288.9"/>
<rect id="cool_133_" x="2039.6" y="5997.5" width="151.1" height="288.9"/>
<rect x="2775" y="5384.2" width="151.1" height="288.9"/>
<rect x="3266.8" y="5607.3" width="75.5" height="144.4"/>
<rect x="2699.4" y="5815.3" width="151.1" height="288.9"/>
<rect x="2699.4" y="6141.9" width="151.1" height="288.9"/>
<rect id="cool_132_" x="2699.4" y="6475.3" width="151.1" height="288.9"/>
<rect id="cool_131_" x="287.1" y="5607.3" width="151.1" height="288.9"/>
<rect id="cool_130_" x="176.1" y="5724" width="151.1" height="288.9"/>
<rect id="cool_129_" x="384.9" y="5204.4" width="220.3" height="937.6"/>
<rect id="cool_128_" x="1593.8" y="7334.9" width="151.1" height="288.9"/>
<rect id="cool_127_" x="1482.8" y="7451.7" width="151.1" height="288.9"/>
<rect id="cool_126_" x="1691.7" y="6932" width="220.3" height="937.6"/>
<rect x="4220.3" y="6693.8" width="151.1" height="288.9"/>
<rect x="4220.3" y="7027.2" width="151.1" height="288.9"/>
<rect x="4220.3" y="7353.8" width="151.1" height="288.9"/>
<rect id="cool_125_" x="4220.3" y="7687.2" width="151.1" height="288.9"/>
<rect x="4976.5" y="6141.9" width="151.1" height="288.9"/>
<rect x="4976.5" y="6475.3" width="151.1" height="288.9"/>
<rect x="4976.5" y="6801.9" width="151.1" height="288.9"/>
<rect id="cool_124_" x="4976.5" y="7135.3" width="151.1" height="288.9"/>
<rect x="6902.1" y="6838.2" width="151.1" height="288.9"/>
<rect x="6902.1" y="7171.6" width="151.1" height="288.9"/>
<rect x="6902.1" y="7498.2" width="151.1" height="288.9"/>
<rect id="cool_123_" x="6392" y="7334.9" width="151.1" height="288.9"/>
<rect id="cool_122_" x="7274.2" y="4604.5" width="151.1" height="288.9"/>
<rect x="6008.3" y="5004.1" width="151.1" height="288.9"/>
<rect x="6008.3" y="5337.5" width="151.1" height="288.9"/>
<rect x="6008.3" y="5664.1" width="151.1" height="288.9"/>
<rect id="cool_121_" x="6008.3" y="5997.5" width="151.1" height="288.9"/>
<rect x="6743.7" y="5384.2" width="151.1" height="288.9"/>
<rect x="7235.5" y="5607.3" width="75.5" height="144.4"/>
<rect x="6668.1" y="5815.3" width="151.1" height="288.9"/>
<rect x="6668.1" y="6141.9" width="151.1" height="288.9"/>
<rect id="cool_120_" x="6668.1" y="6475.3" width="151.1" height="288.9"/>
<rect id="cool_119_" x="4255.8" y="5607.3" width="151.1" height="288.9"/>
<rect id="cool_118_" x="4144.8" y="5724" width="151.1" height="288.9"/>
<rect id="cool_117_" x="4353.6" y="5204.4" width="220.3" height="937.6"/>
<rect id="cool_116_" x="5562.5" y="7334.9" width="151.1" height="288.9"/>
<rect id="cool_115_" x="5451.5" y="7451.7" width="151.1" height="288.9"/>
<rect id="cool_114_" x="5660.4" y="6932" width="220.3" height="937.6"/>
<rect x="8618.9" y="6838.2" width="151.1" height="288.9"/>
<rect x="8618.9" y="7171.6" width="151.1" height="288.9"/>
<rect x="8618.9" y="7498.2" width="151.1" height="288.9"/>
<rect id="cool_113_" x="10937.9" y="7821.9" width="151.1" height="288.9"/>
<rect id="cool_138_" x="-5400" y="7821.9" width="151.1" height="288.9"/>
<rect id="cool_112_" x="8991" y="4604.5" width="151.1" height="288.9"/>
<rect x="7725.1" y="5004.1" width="151.1" height="288.9"/>
<rect x="7725.1" y="5337.5" width="151.1" height="288.9"/>
<rect x="7725.1" y="5664.1" width="151.1" height="288.9"/>
<rect id="cool_111_" x="7725.1" y="5997.5" width="151.1" height="288.9"/>
<rect x="8460.5" y="5384.2" width="151.1" height="288.9"/>
<rect x="8952.3" y="5607.3" width="75.5" height="144.4"/>
<rect x="8384.9" y="5815.3" width="151.1" height="288.9"/>
<rect x="8384.9" y="6141.9" width="151.1" height="288.9"/>
<rect id="cool_110_" x="8384.9" y="6475.3" width="151.1" height="288.9"/>
<rect id="cool_109_" x="7279.3" y="7334.9" width="151.1" height="288.9"/>
<rect id="cool_108_" x="7377.2" y="6932" width="220.3" height="937.6"/>
<rect x="-738.9" y="509.4" width="91.1" height="3363.6"/>
<image style="overflow:visible;enable-background:new    ;" width="200" height="200" xlink:href="../../vectoTilesXML/data/particule.png"  transform="matrix(-0.6127 0.7903 -0.7903 -0.6127 -3034.0417 -3522.1855)">
</image>
</svg>
