<?xml version="1.0" encoding="utf-8"?>
<!-- Generator: Adobe Illustrator 19.1.1, SVG Export Plug-In . SVG Version: 6.00 Build 0)  -->
<svg version="1.1" id="Calque_1" xmlns="http://www.w3.org/2000/svg" xmlns:xlink="http://www.w3.org/1999/xlink" x="0px" y="0px"
	 viewBox="1400 -900 3000 2000" style="enable-background:new 1400 -900 3000 2000;" xml:space="preserve">
<style type="text/css">
	.st0{fill:#0000F4;stroke:#000000;stroke-width:2;stroke-miterlimit:10;}
</style>
<rect x="1618.8" y="-646.3" class="st0" width="895.6" height="116.7"/>
<rect x="1107.2" y="-1327.4" width="111" height="2590.3"/>
<rect x="7945.5" y="-2798.8" width="111" height="4061.7"/>
<rect x="1218.2" y="1171.9" width="3363.6" height="91.1"/>
<rect x="4581.8" y="1171.9" width="3363.6" height="91.1"/>
<rect x="1525.8" y="-646.3" width="73.9" height="233.3"/>
<rect x="2128.5" y="-334.3" width="73.9" height="233.3"/>
<rect x="2825.4" y="-453" width="288.9" height="151.1"/>
<rect x="3158.8" y="-453" width="288.9" height="151.1"/>
<rect x="3485.4" y="-453" width="288.9" height="151.1"/>
<rect id="cool" x="3818.8" y="-453" width="288.9" height="151.1"/>
<rect x="6534.5" y="648.4" width="288.9" height="151.1"/>
<rect x="6867.9" y="648.4" width="288.9" height="151.1"/>
<rect x="7194.5" y="648.4" width="288.9" height="151.1"/>
<rect id="cool_13_" x="7527.9" y="648.4" width="288.9" height="151.1"/>
<rect x="5982.6" y="-107.8" width="288.9" height="151.1"/>
<rect x="6316" y="-107.8" width="288.9" height="151.1"/>
<rect x="6642.6" y="-107.8" width="288.9" height="151.1"/>
<rect id="cool_14_" x="6976" y="-107.8" width="288.9" height="151.1"/>
<rect x="6678.9" y="-2033.4" width="288.9" height="151.1"/>
<rect x="7012.3" y="-2033.4" width="288.9" height="151.1"/>
<rect x="7338.9" y="-2033.4" width="288.9" height="151.1"/>
<rect id="cool_15_" x="7672.3" y="-2033.4" width="288.9" height="151.1"/>
<rect id="cool_18_" x="4309" y="-2675.1" width="288.9" height="151.1"/>
<rect id="cool_19_" x="4309" y="-2483.1" width="288.9" height="151.1"/>
<rect id="cool_20_" x="4309" y="-2291.2" width="288.9" height="151.1"/>
<rect id="cool_21_" x="4309" y="-2099.2" width="288.9" height="151.1"/>
<rect id="cool_22_" x="4309" y="-1907.2" width="288.9" height="151.1"/>
<rect id="cool_23_" x="4309" y="-1715.3" width="288.9" height="151.1"/>
<rect id="cool_24_" x="4309" y="-1523.3" width="288.9" height="151.1"/>
<rect x="4844.8" y="-1139.6" width="288.9" height="151.1"/>
<rect x="5178.2" y="-1139.6" width="288.9" height="151.1"/>
<rect x="5504.8" y="-1139.6" width="288.9" height="151.1"/>
<rect id="cool_16_" x="5838.2" y="-1139.6" width="288.9" height="151.1"/>
<rect x="5224.9" y="-1875" width="288.9" height="151.1"/>
<rect x="3716.9" y="-2874.4" width="288.9" height="151.1"/>
<rect x="3368.9" y="-2874.4" width="288.9" height="151.1"/>
<rect x="3020.9" y="-2874.4" width="288.9" height="151.1"/>
<rect x="2672.9" y="-2874.4" width="288.9" height="151.1"/>
<rect x="2324.9" y="-2874.4" width="288.9" height="151.1"/>
<rect x="2332.6" y="-2675.1" width="288.9" height="151.1"/>
<rect x="1984.7" y="-2675.1" width="288.9" height="151.1"/>
<rect x="1636.7" y="-2675.1" width="288.9" height="151.1"/>
<rect x="1288.7" y="-2675.1" width="288.9" height="151.1"/>
<rect x="940.7" y="-2675.1" width="288.9" height="151.1"/>
<rect x="1213.1" y="-1739.6" width="151.1" height="288.9"/>
<rect x="1213.1" y="-2087.6" width="151.1" height="288.9"/>
<rect x="1213.1" y="-2435.6" width="151.1" height="288.9"/>
<rect x="1213.1" y="-2783.6" width="151.1" height="288.9"/>
<rect x="1213.1" y="-3131.6" width="151.1" height="288.9"/>
<rect x="2393.8" y="-3131.6" width="151.1" height="288.9"/>
<rect x="2393.8" y="-3479.6" width="151.1" height="288.9"/>
<rect x="2393.8" y="-3827.6" width="151.1" height="288.9"/>
<rect x="2393.8" y="-4175.6" width="151.1" height="288.9"/>
<rect x="2393.8" y="-4523.6" width="151.1" height="288.9"/>
<rect x="5448" y="-2291.2" width="144.4" height="75.5"/>
<rect x="5656" y="-1799.4" width="288.9" height="151.1"/>
<rect x="5982.6" y="-1799.4" width="288.9" height="151.1"/>
<rect id="cool_17_" x="6316" y="-1799.4" width="288.9" height="151.1"/>
<rect id="cool_5_" x="3774.3" y="66.1" width="288.9" height="151.1"/>
<rect id="cool_6_" x="3891" y="177.1" width="288.9" height="151.1"/>
<rect x="1687.6" y="499" width="144.5" height="151.1"/>
<rect x="1855.6" y="499" width="144.5" height="151.1"/>
<rect x="2023.6" y="499" width="144.5" height="151.1"/>
<rect x="2191.6" y="499" width="144.5" height="151.1"/>
<rect x="2263.8" y="191" width="144.5" height="151.1"/>
<rect x="2359.6" y="499" width="144.5" height="151.1"/>
<rect x="2527.6" y="499" width="144.5" height="151.1"/>
<rect x="2021" y="-153" width="288.9" height="151.1"/>
<rect x="1707.2" y="-26.3" width="73.9" height="233.3"/>
<rect x="1599.7" y="155" width="288.9" height="151.1"/>
<rect x="2347.6" y="-153" width="288.9" height="151.1"/>
<rect id="cool_1_" x="2681" y="-153" width="288.9" height="151.1"/>
<rect id="cool_2_" x="2858" y="230.6" width="288.9" height="151.1"/>
<rect id="cool_3_" x="3014.3" y="574.6" width="1165.6" height="601"/>
<rect id="cool_4_" x="3371.4" y="-101" width="937.6" height="220.3"/>
<rect id="cool_9_" x="5448" y="612.9" width="288.9" height="151.1"/>
<rect id="cool_8_" x="5564.7" y="723.9" width="288.9" height="151.1"/>
<rect id="cool_7_" x="5045.1" y="445.9" width="937.6" height="220.3"/>
<rect id="cool_12_" x="7175.6" y="-693.8" width="288.9" height="151.1"/>
<rect id="cool_11_" x="7292.4" y="-582.8" width="288.9" height="151.1"/>
<rect id="cool_10_" x="6772.7" y="-860.9" width="937.6" height="220.3"/>
<rect x="4589.7" y="-2798.8" width="3363.6" height="91.1"/>
</svg>
